<svg width="100" height="126" viewBox="0 0 100 126" fill="none" xmlns="http://www.w3.org/2000/svg">
<rect width="100" height="120" fill="#020E35"/>
<path fill-rule="evenodd" clip-rule="evenodd" d="M60.0467 36C56.7684 36 54.12 38.6521 54.12 41.925V56.9875C54.12 63.7103 48.6779 69.1375 41.9652 69.1375C35.2437 69.1375 29.8133 63.6997 29.8133 56.989V56.9875V56.9807C29.8096 56.2072 29.1812 55.5813 28.4066 55.5813C27.6298 55.5813 27 56.2109 27 56.9875C27 68.9109 35.9171 76.4688 45.7333 76.4688C56.9274 76.4688 65.9734 67.4114 65.9734 56.2344V41.925C65.9733 38.6473 63.3197 36 60.0467 36ZM68.7866 42.025H70.5934C71.3702 42.025 72 42.6547 72 43.4313C72 44.2079 71.3702 44.8375 70.5934 44.8375H68.7866V42.025ZM41.9651 66.325C36.8158 66.325 32.6265 62.1369 32.6265 56.9807H32.6266V56.9674C32.6242 56.4818 32.5381 56.0155 32.3837 55.5813H47.9933C49.2135 55.5813 50.3506 55.2214 51.3066 54.6042V56.9875C51.3066 62.1362 47.1161 66.325 41.9651 66.325ZM48.5466 81.1875H53.2667C54.0435 81.1875 54.6733 81.8171 54.6733 82.5938C54.6733 83.3704 54.0435 84 53.2667 84H45.7333C44.9565 84 44.3267 83.3704 44.3267 82.5938C44.3267 81.8171 44.9565 81.1875 45.7333 81.1875V79.2812C46.6812 79.2812 47.6202 79.224 48.5466 79.1123V81.1875Z" fill="white"/>
<rect y="120" width="100" height="6" fill="url(#paint0_linear_2_200)"/>
<defs>
<linearGradient id="paint0_linear_2_200" x1="100" y1="120" x2="0" y2="120" gradientUnits="userSpaceOnUse">
<stop stop-color="#8C32F0"/>
<stop offset="1" stop-color="#E73587"/>
</linearGradient>
</defs>
</svg>
